# xmcd
#
# Track frame offsets:
#	150
#	11657
#	34370
#	44295
#	56107
#	74322
#	90772
#	114370
#	140542
#	154492
#	170172
#	180695
#
# Disc length: 2605 seconds
# Revision: 0
# Processed by: cddbd v1.5.2PL0 Copyright (c) Steve Scherf et al.
# Submitted via: dBpowerAMP V12.0
#
DISCID=a50a2b0c
DTITLE=Various Artist - Blues Box, Vol. 3
DYEAR=1996
DGENRE=Blues
TTITLE0=Louis Jordan - Let The Good Times Roll
TTITLE1=B. B. King - Every Day I Have The Blues
TTITLE2=James Cotton - I Need You So Bad
TTITLE3=Louis Jordan - Choo Choo Ch'Boogie
TTITLE4=Big Joe Turner - Roll 'Em Pete
TTITLE5=John Lee Hooker - Mama, You Got A Daughter
TTITLE6=James Cotton - 'Fore Day Blues
TTITLE7=Michael Bloomfield - Knockin' Myself Out
TTITLE8=Roy Milton - R. M. Blues
TTITLE9=B. B. King - The Letter
TTITLE10=Elmore James - I Done Somebody Wrong
TTITLE11=Louis Jordan - Helping Hand
EXTD=
EXTT0=
EXTT1=
EXTT2=
EXTT3=
EXTT4=
EXTT5=
EXTT6=
EXTT7=
EXTT8=
EXTT9=
EXTT10=
EXTT11=
PLAYORDER=
